<mxfile host="app.diagrams.net" agent="Mozilla/5.0 (Windows NT 10.0; Win64; x64) AppleWebKit/537.36 (KHTML, like Gecko) Chrome/129.0.0.0 Safari/537.36" version="24.7.17">
  <diagram name="Page-1" id="h7qLzZXBfa_8gzpIA_jv">
    <mxGraphModel dx="1366" dy="741" grid="1" gridSize="10" guides="1" tooltips="1" connect="1" arrows="1" fold="1" page="1" pageScale="1" pageWidth="850" pageHeight="1100" math="0" shadow="0">
      <root>
        <mxCell id="0" />
        <mxCell id="1" parent="0" />
        <mxCell id="lrxJvCzyfzTYvcZ8lVyZ-3" value="" style="edgeStyle=orthogonalEdgeStyle;rounded=0;orthogonalLoop=1;jettySize=auto;html=1;" edge="1" parent="1" source="lrxJvCzyfzTYvcZ8lVyZ-1" target="lrxJvCzyfzTYvcZ8lVyZ-2">
          <mxGeometry relative="1" as="geometry" />
        </mxCell>
        <mxCell id="lrxJvCzyfzTYvcZ8lVyZ-8" value="Enter Credentials" style="edgeLabel;html=1;align=center;verticalAlign=middle;resizable=0;points=[];" vertex="1" connectable="0" parent="lrxJvCzyfzTYvcZ8lVyZ-3">
          <mxGeometry x="-0.2083" relative="1" as="geometry">
            <mxPoint x="7" y="-10" as="offset" />
          </mxGeometry>
        </mxCell>
        <mxCell id="lrxJvCzyfzTYvcZ8lVyZ-12" style="edgeStyle=orthogonalEdgeStyle;rounded=0;orthogonalLoop=1;jettySize=auto;html=1;exitX=0.85;exitY=1.044;exitDx=0;exitDy=0;entryX=0;entryY=0.25;entryDx=0;entryDy=0;exitPerimeter=0;" edge="1" parent="1" source="lrxJvCzyfzTYvcZ8lVyZ-1" target="lrxJvCzyfzTYvcZ8lVyZ-11">
          <mxGeometry relative="1" as="geometry">
            <Array as="points">
              <mxPoint x="220" y="153" />
              <mxPoint x="220" y="213" />
            </Array>
          </mxGeometry>
        </mxCell>
        <mxCell id="lrxJvCzyfzTYvcZ8lVyZ-21" style="edgeStyle=orthogonalEdgeStyle;rounded=0;orthogonalLoop=1;jettySize=auto;html=1;exitX=0.75;exitY=0;exitDx=0;exitDy=0;entryX=0;entryY=0.5;entryDx=0;entryDy=0;" edge="1" parent="1" source="lrxJvCzyfzTYvcZ8lVyZ-1" target="lrxJvCzyfzTYvcZ8lVyZ-17">
          <mxGeometry relative="1" as="geometry" />
        </mxCell>
        <mxCell id="lrxJvCzyfzTYvcZ8lVyZ-36" style="edgeStyle=orthogonalEdgeStyle;rounded=0;orthogonalLoop=1;jettySize=auto;html=1;exitX=0.5;exitY=1;exitDx=0;exitDy=0;entryX=0;entryY=0.5;entryDx=0;entryDy=0;" edge="1" parent="1" source="lrxJvCzyfzTYvcZ8lVyZ-1" target="lrxJvCzyfzTYvcZ8lVyZ-35">
          <mxGeometry relative="1" as="geometry" />
        </mxCell>
        <mxCell id="lrxJvCzyfzTYvcZ8lVyZ-1" value="Student" style="rounded=0;whiteSpace=wrap;html=1;" vertex="1" parent="1">
          <mxGeometry x="120" y="90" width="120" height="60" as="geometry" />
        </mxCell>
        <mxCell id="lrxJvCzyfzTYvcZ8lVyZ-9" style="edgeStyle=orthogonalEdgeStyle;rounded=0;orthogonalLoop=1;jettySize=auto;html=1;exitX=1;exitY=0.5;exitDx=0;exitDy=0;entryX=0;entryY=0.5;entryDx=0;entryDy=0;" edge="1" parent="1" source="lrxJvCzyfzTYvcZ8lVyZ-2" target="lrxJvCzyfzTYvcZ8lVyZ-7">
          <mxGeometry relative="1" as="geometry" />
        </mxCell>
        <mxCell id="lrxJvCzyfzTYvcZ8lVyZ-30" style="edgeStyle=orthogonalEdgeStyle;rounded=0;orthogonalLoop=1;jettySize=auto;html=1;exitX=0;exitY=0.75;exitDx=0;exitDy=0;entryX=1;entryY=0.75;entryDx=0;entryDy=0;" edge="1" parent="1" source="lrxJvCzyfzTYvcZ8lVyZ-2" target="lrxJvCzyfzTYvcZ8lVyZ-1">
          <mxGeometry relative="1" as="geometry" />
        </mxCell>
        <mxCell id="lrxJvCzyfzTYvcZ8lVyZ-2" value="Validate Credentials" style="shape=process;whiteSpace=wrap;html=1;backgroundOutline=1;rounded=0;" vertex="1" parent="1">
          <mxGeometry x="350" y="90" width="120" height="60" as="geometry" />
        </mxCell>
        <mxCell id="lrxJvCzyfzTYvcZ8lVyZ-7" value="Login DB" style="shape=internalStorage;whiteSpace=wrap;html=1;backgroundOutline=1;dx=10;dy=10;" vertex="1" parent="1">
          <mxGeometry x="630" y="90" width="80" height="60" as="geometry" />
        </mxCell>
        <mxCell id="lrxJvCzyfzTYvcZ8lVyZ-10" value="Compare with &lt;br&gt;stored credentials" style="text;html=1;align=center;verticalAlign=middle;resizable=0;points=[];autosize=1;strokeColor=none;fillColor=none;" vertex="1" parent="1">
          <mxGeometry x="490" y="84" width="120" height="40" as="geometry" />
        </mxCell>
        <mxCell id="lrxJvCzyfzTYvcZ8lVyZ-13" style="edgeStyle=orthogonalEdgeStyle;rounded=0;orthogonalLoop=1;jettySize=auto;html=1;exitX=1;exitY=0.5;exitDx=0;exitDy=0;entryX=0.25;entryY=1;entryDx=0;entryDy=0;" edge="1" parent="1" source="lrxJvCzyfzTYvcZ8lVyZ-11" target="lrxJvCzyfzTYvcZ8lVyZ-7">
          <mxGeometry relative="1" as="geometry">
            <mxPoint x="650" y="170" as="targetPoint" />
          </mxGeometry>
        </mxCell>
        <mxCell id="lrxJvCzyfzTYvcZ8lVyZ-11" value="Reset Password" style="shape=process;whiteSpace=wrap;html=1;backgroundOutline=1;rounded=0;" vertex="1" parent="1">
          <mxGeometry x="350" y="198" width="120" height="60" as="geometry" />
        </mxCell>
        <mxCell id="lrxJvCzyfzTYvcZ8lVyZ-15" value="Update OTP value &lt;br&gt;and expiry date" style="text;html=1;align=center;verticalAlign=middle;resizable=0;points=[];autosize=1;strokeColor=none;fillColor=none;" vertex="1" parent="1">
          <mxGeometry x="492" y="193" width="120" height="40" as="geometry" />
        </mxCell>
        <mxCell id="lrxJvCzyfzTYvcZ8lVyZ-23" style="edgeStyle=orthogonalEdgeStyle;rounded=0;orthogonalLoop=1;jettySize=auto;html=1;exitX=1;exitY=0.25;exitDx=0;exitDy=0;entryX=0.5;entryY=0;entryDx=0;entryDy=0;" edge="1" parent="1" source="lrxJvCzyfzTYvcZ8lVyZ-17" target="lrxJvCzyfzTYvcZ8lVyZ-7">
          <mxGeometry relative="1" as="geometry" />
        </mxCell>
        <mxCell id="lrxJvCzyfzTYvcZ8lVyZ-25" style="edgeStyle=orthogonalEdgeStyle;rounded=0;orthogonalLoop=1;jettySize=auto;html=1;exitX=1;exitY=0.75;exitDx=0;exitDy=0;entryX=0.25;entryY=0;entryDx=0;entryDy=0;" edge="1" parent="1" source="lrxJvCzyfzTYvcZ8lVyZ-17" target="lrxJvCzyfzTYvcZ8lVyZ-7">
          <mxGeometry relative="1" as="geometry" />
        </mxCell>
        <mxCell id="lrxJvCzyfzTYvcZ8lVyZ-27" style="edgeStyle=orthogonalEdgeStyle;rounded=0;orthogonalLoop=1;jettySize=auto;html=1;exitX=0;exitY=0.75;exitDx=0;exitDy=0;entryX=1;entryY=0;entryDx=0;entryDy=0;" edge="1" parent="1" source="lrxJvCzyfzTYvcZ8lVyZ-17" target="lrxJvCzyfzTYvcZ8lVyZ-1">
          <mxGeometry relative="1" as="geometry" />
        </mxCell>
        <mxCell id="lrxJvCzyfzTYvcZ8lVyZ-28" value="Send Error" style="edgeLabel;html=1;align=center;verticalAlign=middle;resizable=0;points=[];" vertex="1" connectable="0" parent="lrxJvCzyfzTYvcZ8lVyZ-27">
          <mxGeometry x="0.1604" y="3" relative="1" as="geometry">
            <mxPoint x="19" y="5" as="offset" />
          </mxGeometry>
        </mxCell>
        <mxCell id="lrxJvCzyfzTYvcZ8lVyZ-17" value="Validate OTP" style="shape=process;whiteSpace=wrap;html=1;backgroundOutline=1;rounded=0;" vertex="1" parent="1">
          <mxGeometry x="350" y="20" width="120" height="60" as="geometry" />
        </mxCell>
        <mxCell id="lrxJvCzyfzTYvcZ8lVyZ-18" style="edgeStyle=orthogonalEdgeStyle;rounded=0;orthogonalLoop=1;jettySize=auto;html=1;exitX=0;exitY=0.75;exitDx=0;exitDy=0;entryX=0.66;entryY=1.019;entryDx=0;entryDy=0;entryPerimeter=0;" edge="1" parent="1" source="lrxJvCzyfzTYvcZ8lVyZ-11" target="lrxJvCzyfzTYvcZ8lVyZ-1">
          <mxGeometry relative="1" as="geometry" />
        </mxCell>
        <mxCell id="lrxJvCzyfzTYvcZ8lVyZ-19" value="Send OTP" style="text;html=1;align=center;verticalAlign=middle;resizable=0;points=[];autosize=1;strokeColor=none;fillColor=none;" vertex="1" parent="1">
          <mxGeometry x="227" y="220" width="80" height="30" as="geometry" />
        </mxCell>
        <mxCell id="lrxJvCzyfzTYvcZ8lVyZ-20" value="Enter Email" style="text;html=1;align=center;verticalAlign=middle;resizable=0;points=[];autosize=1;strokeColor=none;fillColor=none;" vertex="1" parent="1">
          <mxGeometry x="222" y="190" width="90" height="30" as="geometry" />
        </mxCell>
        <mxCell id="lrxJvCzyfzTYvcZ8lVyZ-22" value="Enter OTP and &lt;br&gt;new password" style="text;html=1;align=center;verticalAlign=middle;resizable=0;points=[];autosize=1;strokeColor=none;fillColor=none;" vertex="1" parent="1">
          <mxGeometry x="212" y="13" width="100" height="40" as="geometry" />
        </mxCell>
        <mxCell id="lrxJvCzyfzTYvcZ8lVyZ-24" value="Update password&amp;nbsp;" style="text;html=1;align=center;verticalAlign=middle;resizable=0;points=[];autosize=1;strokeColor=none;fillColor=none;" vertex="1" parent="1">
          <mxGeometry x="500" y="13" width="120" height="30" as="geometry" />
        </mxCell>
        <mxCell id="lrxJvCzyfzTYvcZ8lVyZ-26" value="Compare OTP value" style="text;html=1;align=center;verticalAlign=middle;resizable=0;points=[];autosize=1;strokeColor=none;fillColor=none;" vertex="1" parent="1">
          <mxGeometry x="492" y="43" width="130" height="30" as="geometry" />
        </mxCell>
        <mxCell id="lrxJvCzyfzTYvcZ8lVyZ-32" value="Send Error" style="edgeLabel;html=1;align=center;verticalAlign=middle;resizable=0;points=[];" vertex="1" connectable="0" parent="1">
          <mxGeometry x="291.9993103448277" y="143" as="geometry" />
        </mxCell>
        <mxCell id="lrxJvCzyfzTYvcZ8lVyZ-39" style="edgeStyle=orthogonalEdgeStyle;rounded=0;orthogonalLoop=1;jettySize=auto;html=1;exitX=1;exitY=0.5;exitDx=0;exitDy=0;entryX=0;entryY=0.5;entryDx=0;entryDy=0;" edge="1" parent="1" source="lrxJvCzyfzTYvcZ8lVyZ-35" target="lrxJvCzyfzTYvcZ8lVyZ-38">
          <mxGeometry relative="1" as="geometry" />
        </mxCell>
        <mxCell id="lrxJvCzyfzTYvcZ8lVyZ-35" value="View Announcements" style="shape=process;whiteSpace=wrap;html=1;backgroundOutline=1;rounded=0;" vertex="1" parent="1">
          <mxGeometry x="350" y="280" width="120" height="60" as="geometry" />
        </mxCell>
        <mxCell id="lrxJvCzyfzTYvcZ8lVyZ-37" value="Set Filters" style="text;html=1;align=center;verticalAlign=middle;resizable=0;points=[];autosize=1;strokeColor=none;fillColor=none;" vertex="1" parent="1">
          <mxGeometry x="180" y="288" width="80" height="30" as="geometry" />
        </mxCell>
        <mxCell id="lrxJvCzyfzTYvcZ8lVyZ-40" style="edgeStyle=orthogonalEdgeStyle;rounded=0;orthogonalLoop=1;jettySize=auto;html=1;exitX=0.5;exitY=1;exitDx=0;exitDy=0;entryX=0.25;entryY=1;entryDx=0;entryDy=0;" edge="1" parent="1" source="lrxJvCzyfzTYvcZ8lVyZ-38" target="lrxJvCzyfzTYvcZ8lVyZ-1">
          <mxGeometry relative="1" as="geometry">
            <mxPoint x="150" y="190" as="targetPoint" />
          </mxGeometry>
        </mxCell>
        <mxCell id="lrxJvCzyfzTYvcZ8lVyZ-43" style="edgeStyle=orthogonalEdgeStyle;rounded=0;orthogonalLoop=1;jettySize=auto;html=1;exitX=0.75;exitY=1;exitDx=0;exitDy=0;entryX=1;entryY=0.5;entryDx=0;entryDy=0;" edge="1" parent="1" source="lrxJvCzyfzTYvcZ8lVyZ-38" target="lrxJvCzyfzTYvcZ8lVyZ-44">
          <mxGeometry relative="1" as="geometry">
            <mxPoint x="490" y="440" as="targetPoint" />
          </mxGeometry>
        </mxCell>
        <mxCell id="lrxJvCzyfzTYvcZ8lVyZ-38" value="Announcements DB" style="shape=internalStorage;whiteSpace=wrap;html=1;backgroundOutline=1;dx=10;dy=10;" vertex="1" parent="1">
          <mxGeometry x="622" y="285" width="140" height="50" as="geometry" />
        </mxCell>
        <mxCell id="lrxJvCzyfzTYvcZ8lVyZ-41" value="Display Announcements" style="text;html=1;align=center;verticalAlign=middle;resizable=0;points=[];autosize=1;strokeColor=none;fillColor=none;" vertex="1" parent="1">
          <mxGeometry x="336" y="349" width="150" height="30" as="geometry" />
        </mxCell>
        <mxCell id="lrxJvCzyfzTYvcZ8lVyZ-42" value="Fetch announcements &lt;br&gt;according to filters" style="text;html=1;align=center;verticalAlign=middle;resizable=0;points=[];autosize=1;strokeColor=none;fillColor=none;" vertex="1" parent="1">
          <mxGeometry x="479" y="275" width="140" height="40" as="geometry" />
        </mxCell>
        <mxCell id="lrxJvCzyfzTYvcZ8lVyZ-45" style="edgeStyle=orthogonalEdgeStyle;rounded=0;orthogonalLoop=1;jettySize=auto;html=1;exitX=0;exitY=0.5;exitDx=0;exitDy=0;entryX=0.061;entryY=0.991;entryDx=0;entryDy=0;entryPerimeter=0;" edge="1" parent="1" source="lrxJvCzyfzTYvcZ8lVyZ-44" target="lrxJvCzyfzTYvcZ8lVyZ-1">
          <mxGeometry relative="1" as="geometry">
            <mxPoint x="130" y="160" as="targetPoint" />
          </mxGeometry>
        </mxCell>
        <mxCell id="lrxJvCzyfzTYvcZ8lVyZ-44" value="SMS API" style="shape=process;whiteSpace=wrap;html=1;backgroundOutline=1;rounded=0;" vertex="1" parent="1">
          <mxGeometry x="350" y="380" width="120" height="60" as="geometry" />
        </mxCell>
        <mxCell id="lrxJvCzyfzTYvcZ8lVyZ-46" value="New Announcement" style="text;html=1;align=center;verticalAlign=middle;resizable=0;points=[];autosize=1;strokeColor=none;fillColor=none;" vertex="1" parent="1">
          <mxGeometry x="540" y="388" width="130" height="30" as="geometry" />
        </mxCell>
        <mxCell id="lrxJvCzyfzTYvcZ8lVyZ-47" value="Send SMS alert" style="text;html=1;align=center;verticalAlign=middle;resizable=0;points=[];autosize=1;strokeColor=none;fillColor=none;" vertex="1" parent="1">
          <mxGeometry x="135" y="388" width="110" height="30" as="geometry" />
        </mxCell>
      </root>
    </mxGraphModel>
  </diagram>
</mxfile>
